<svg data-v-423bf9ae="" xmlns="http://www.w3.org/2000/svg" viewBox="0 0 199.36744867369185 60" class="font"><!----><!----><!----><g data-v-423bf9ae="" id="c3612f9d-65a5-469b-8bfe-b5c500a22f83" fill="black" transform="matrix(5.5813953488372094,0,0,5.5813953488372094,0.3348804033079773,-11.66511603843334)"><path d="M7.57 9.98L7.57 9.98Q7.64 10.07 7.90 10.35L7.90 10.35L7.90 10.35Q8.16 10.63 8.32 10.91L8.32 10.91L8.32 10.91Q8.48 11.20 8.48 11.47L8.48 11.47L8.48 11.47Q8.48 11.80 8.23 12.10L8.23 12.10L8.23 12.10Q7.92 12.47 7.48 12.47L7.48 12.47L7.48 12.47Q7.28 12.47 7.04 12.42L7.04 12.42L7.04 12.42Q6.80 12.36 6.73 12.35L6.73 12.35L6.73 12.35Q5.63 12.12 4.16 12.12L4.16 12.12L4.16 12.12Q3.02 12.12 1.75 12.24L1.75 12.24L1.75 12.24Q1.64 12.25 1.43 12.26L1.43 12.26L1.43 12.26Q1.22 12.28 1.05 12.28L1.05 12.28L1.05 12.28Q0.55 12.28 0.24 12.12L0.24 12.12L0.24 12.12Q-0.06 11.96-0.06 11.52L-0.06 11.52L-0.06 11.52Q-0.06 11.27 0.04 10.98L0.04 10.98L0.04 10.98Q0.14 10.70 0.34 10.29L0.34 10.29L0.46 10.00L0.46 10.00Q0.67 9.48 0.92 9.21L0.92 9.21L0.92 9.21Q1.18 8.93 1.64 8.93L1.64 8.93L1.64 8.93Q2.02 8.93 2.23 9.18L2.23 9.18L2.23 9.18Q2.45 9.42 2.45 9.79L2.45 9.79L2.45 9.79Q2.45 10.04 2.32 10.29L2.32 10.29L2.32 10.29Q3.21 10.23 4.33 10.23L4.33 10.23L4.33 10.23Q4.98 10.23 5.32 10.25L5.32 10.25L5.32 10.25Q4.03 8.62 3.40 7.80L3.40 7.80L2.44 6.58L2.44 6.58Q2.21 6.30 2.06 6.15L2.06 6.15L2.06 6.15Q1.54 5.54 1.27 5.12L1.27 5.12L1.27 5.12Q1.01 4.69 1.01 4.24L1.01 4.24L1.01 4.24Q1.01 3.82 1.31 3.56L1.31 3.56L1.31 3.56Q1.61 3.30 2.02 3.17L2.02 3.17L2.02 3.17Q2.44 3.04 3.07 2.91L3.07 2.91L3.65 2.79L3.65 2.79Q4.76 2.51 5.94 2.28L5.94 2.28L5.94 2.28Q6.03 2.27 6.33 2.21L6.33 2.21L6.33 2.21Q6.80 2.09 7.17 2.09L7.17 2.09L7.17 2.09Q7.63 2.09 7.87 2.34L7.87 2.34L7.87 2.34Q8.12 2.60 8.12 2.88L8.12 2.88L8.12 2.88Q8.12 3.15 7.96 3.42L7.96 3.42L7.96 3.42Q7.80 3.68 7.45 4.12L7.45 4.12L7.45 4.12Q7.03 4.62 6.92 4.86L6.92 4.86L6.92 4.86Q6.73 5.25 6.53 5.52L6.53 5.52L6.53 5.52Q6.33 5.78 6.08 5.78L6.08 5.78L6.08 5.78Q5.89 5.78 5.71 5.64L5.71 5.64L5.71 5.64Q5.52 5.49 5.52 5.22L5.52 5.22L5.52 5.22Q5.52 5.03 5.61 4.81L5.61 4.81L5.61 4.81Q5.70 4.59 5.79 4.41L5.79 4.41L5.79 4.41Q5.88 4.23 5.91 4.19L5.91 4.19L5.91 4.19Q5.19 4.31 3.79 4.68L3.79 4.68L3.79 4.68Q3.63 4.73 3.11 4.86L3.11 4.86L4.79 6.79L4.79 6.79Q6.94 9.24 7.57 9.98L7.57 9.98ZM14.99 11.14L14.99 11.14Q15.20 11.21 15.20 11.40L15.20 11.40L15.20 11.40Q15.20 11.62 14.94 11.89L14.94 11.89L14.94 11.89Q14.64 12.18 14.18 12.18L14.18 12.18L14.18 12.18Q13.96 12.18 13.80 12.12L13.80 12.12L13.80 12.12Q13.06 11.89 12.46 11.89L12.46 11.89L12.46 11.89Q11.41 11.89 10.32 12.56L10.32 12.56L10.32 12.56Q10.14 12.68 9.88 12.76L9.88 12.76L9.88 12.76Q9.62 12.84 9.39 12.84L9.39 12.84L9.39 12.84Q9.18 12.84 9.06 12.76L9.06 12.76L9.06 12.76Q8.93 12.68 8.93 12.52L8.93 12.52L8.93 12.52Q8.93 12.42 8.96 12.35L8.96 12.35L8.96 12.35Q9.37 11.21 9.61 10.30L9.61 10.30L9.61 10.30Q9.86 9.39 9.94 8.46L9.94 8.46L9.94 8.46Q10.07 7.20 10.07 6.61L10.07 6.61L10.07 6.61Q10.07 5.05 9.46 4.23L9.46 4.23L9.46 4.23Q9.39 4.14 9.39 4.00L9.39 4.00L9.39 4.00Q9.39 3.72 9.79 3.48L9.79 3.48L9.79 3.48Q10.18 3.23 10.56 3.23L10.56 3.23L10.56 3.23Q10.81 3.23 10.92 3.35L10.92 3.35L10.92 3.35Q11.10 3.42 11.16 3.57L11.16 3.57L11.16 3.57Q11.51 4.49 12.12 5.13L12.12 5.13L12.12 5.13Q12.74 5.77 13.58 5.77L13.58 5.77L13.58 5.77Q13.73 5.77 14.04 5.71L14.04 5.71L14.04 5.71Q14.24 5.68 14.29 5.68L14.29 5.68L14.29 5.68Q14.53 5.68 14.65 5.79L14.65 5.79L14.65 5.79Q14.77 5.89 14.77 6.08L14.77 6.08L14.77 6.08Q14.77 6.27 14.61 6.47L14.61 6.47L14.61 6.47Q14.45 6.66 14.18 6.75L14.18 6.75L14.18 6.75Q13.61 6.94 13.03 6.94L13.03 6.94L13.03 6.94Q12.35 6.94 11.72 6.66L11.72 6.66L11.72 6.66Q11.69 7.45 11.65 7.84L11.65 7.84L11.55 8.72L11.55 8.72Q12.10 8.62 12.64 8.55L12.64 8.55L12.84 8.54L12.84 8.54Q13.40 8.54 13.40 8.92L13.40 8.92L13.40 8.92Q13.40 9.17 13.12 9.37L13.12 9.37L13.12 9.37Q12.84 9.56 12.54 9.62L12.54 9.62L12.54 9.62Q12.11 9.70 11.35 9.80L11.35 9.80L11.35 9.80Q11.20 10.49 11.02 11.09L11.02 11.09L11.02 11.09Q11.94 10.75 12.89 10.75L12.89 10.75L12.89 10.75Q13.94 10.75 14.99 11.14L14.99 11.14ZM21.71 11.14L21.71 11.14Q21.92 11.21 21.92 11.40L21.92 11.40L21.92 11.40Q21.92 11.62 21.66 11.89L21.66 11.89L21.66 11.89Q21.36 12.18 20.90 12.18L20.90 12.18L20.90 12.18Q20.68 12.18 20.52 12.12L20.52 12.12L20.52 12.12Q19.78 11.89 19.18 11.89L19.18 11.89L19.18 11.89Q18.13 11.89 17.04 12.56L17.04 12.56L17.04 12.56Q16.86 12.68 16.60 12.76L16.60 12.76L16.60 12.76Q16.34 12.84 16.11 12.84L16.11 12.84L16.11 12.84Q15.90 12.84 15.78 12.76L15.78 12.76L15.78 12.76Q15.65 12.68 15.65 12.52L15.65 12.52L15.65 12.52Q15.65 12.42 15.68 12.35L15.68 12.35L15.68 12.35Q16.09 11.21 16.33 10.30L16.33 10.30L16.33 10.30Q16.58 9.39 16.66 8.46L16.66 8.46L16.66 8.46Q16.79 7.20 16.79 6.61L16.79 6.61L16.79 6.61Q16.79 5.05 16.18 4.23L16.18 4.23L16.18 4.23Q16.11 4.14 16.11 4.00L16.11 4.00L16.11 4.00Q16.11 3.72 16.51 3.48L16.51 3.48L16.51 3.48Q16.90 3.23 17.28 3.23L17.28 3.23L17.28 3.23Q17.53 3.23 17.64 3.35L17.64 3.35L17.64 3.35Q17.82 3.42 17.88 3.57L17.88 3.57L17.88 3.57Q18.23 4.49 18.84 5.13L18.84 5.13L18.84 5.13Q19.46 5.77 20.30 5.77L20.30 5.77L20.30 5.77Q20.45 5.77 20.76 5.71L20.76 5.71L20.76 5.71Q20.96 5.68 21.01 5.68L21.01 5.68L21.01 5.68Q21.25 5.68 21.37 5.79L21.37 5.79L21.37 5.79Q21.49 5.89 21.49 6.08L21.49 6.08L21.49 6.08Q21.49 6.27 21.33 6.47L21.33 6.47L21.33 6.47Q21.17 6.66 20.90 6.75L20.90 6.75L20.90 6.75Q20.33 6.94 19.75 6.94L19.75 6.94L19.75 6.94Q19.07 6.94 18.44 6.66L18.44 6.66L18.44 6.66Q18.41 7.45 18.37 7.84L18.37 7.84L18.27 8.72L18.27 8.72Q18.82 8.62 19.36 8.55L19.36 8.55L19.56 8.54L19.56 8.54Q20.12 8.54 20.12 8.92L20.12 8.92L20.12 8.92Q20.12 9.17 19.84 9.37L19.84 9.37L19.84 9.37Q19.56 9.56 19.26 9.62L19.26 9.62L19.26 9.62Q18.83 9.70 18.07 9.80L18.07 9.80L18.07 9.80Q17.92 10.49 17.74 11.09L17.74 11.09L17.74 11.09Q18.66 10.75 19.61 10.75L19.61 10.75L19.61 10.75Q20.66 10.75 21.71 11.14L21.71 11.14ZM28.91 7.70L28.91 7.70Q28.92 7.71 28.92 7.74L28.92 7.74L28.92 7.74Q29.02 8.62 29.02 9.65L29.02 9.65L29.02 9.65Q29.02 10.78 28.88 11.82L28.88 11.82L28.88 11.82Q28.84 12.10 28.45 12.31L28.45 12.31L28.45 12.31Q28.06 12.53 27.68 12.53L27.68 12.53L27.68 12.53Q27.45 12.53 27.33 12.44L27.33 12.44L27.33 12.44Q27.20 12.35 27.22 12.15L27.22 12.15L27.22 12.15Q27.36 10.86 27.36 9.87L27.36 9.87L27.36 9.87Q26.92 10.98 26.18 11.74L26.18 11.74L26.18 11.74Q25.44 12.50 24.46 12.50L24.46 12.50L24.46 12.50Q24.25 12.50 24.04 12.46L24.04 12.46L24.04 12.46Q23.13 12.31 22.74 11.63L22.74 11.63L22.74 11.63Q22.34 10.95 22.34 9.95L22.34 9.95L22.34 9.95Q22.34 8.97 22.67 7.83L22.67 7.83L22.67 7.83Q22.92 6.96 23.41 6.15L23.41 6.15L23.41 6.15Q23.91 5.35 24.63 4.83L24.63 4.83L24.63 4.83Q25.34 4.31 26.19 4.31L26.19 4.31L26.19 4.31Q26.92 4.31 27.26 4.59L27.26 4.59L27.26 4.59Q27.59 4.87 27.59 5.33L27.59 5.33L27.59 5.33Q27.59 5.91 27.17 6.60L27.17 6.60L27.17 6.60Q26.75 7.29 26.28 7.66L26.28 7.66L26.28 7.66Q26.14 7.76 25.90 7.82L25.90 7.82L25.90 7.82Q25.66 7.88 25.44 7.88L25.44 7.88L25.44 7.88Q25.19 7.88 25.03 7.81L25.03 7.81L25.03 7.81Q24.88 7.74 24.88 7.62L24.88 7.62L24.88 7.62Q24.88 7.43 25.16 7.20L25.16 7.20L25.16 7.20Q25.34 7.04 25.65 6.53L25.65 6.53L25.65 6.53Q25.97 6.02 25.97 5.73L25.97 5.73L25.97 5.73Q25.97 5.46 25.68 5.46L25.68 5.46L25.68 5.46Q25.26 5.46 24.68 6.72L24.68 6.72L24.68 6.72Q24.36 7.35 24.21 8.09L24.21 8.09L24.21 8.09Q24.01 8.99 24.01 9.74L24.01 9.74L24.01 9.74Q24.01 11.10 24.75 11.24L24.75 11.24L24.75 11.24Q25.05 11.28 25.33 10.80L25.33 10.80L25.33 10.80Q25.62 10.32 25.83 9.66L25.83 9.66L25.83 9.66Q25.65 9.76 25.28 9.93L25.28 9.93L25.28 9.93Q25.06 10.02 24.79 10.02L24.79 10.02L24.79 10.02Q24.51 10.02 24.37 9.88L24.37 9.88L24.37 9.88Q24.29 9.77 24.29 9.67L24.29 9.67L24.29 9.67Q24.29 9.55 24.37 9.43L24.37 9.43L24.37 9.43Q24.44 9.31 24.56 9.24L24.56 9.24L24.56 9.24Q26.33 8.02 27.94 7.29L27.94 7.29L27.94 7.29Q28.07 7.24 28.25 7.24L28.25 7.24L28.25 7.24Q28.53 7.24 28.74 7.37L28.74 7.37L28.74 7.37Q28.95 7.50 28.91 7.70L28.91 7.70ZM33.68 9.63L33.68 9.63Q34.01 8.88 34.01 8.08L34.01 8.08L34.01 8.08Q34.01 7.45 33.79 6.92L33.79 6.92L33.79 6.92Q33.57 6.40 33.11 6.06L33.11 6.06L33.11 6.06Q32.80 5.84 32.52 5.84L32.52 5.84L32.52 5.84Q32.41 5.84 32.24 5.89L32.24 5.89L32.24 5.89Q32.37 5.95 32.37 6.09L32.37 6.09L32.37 6.09Q32.37 6.17 32.31 6.29L32.31 6.29L32.31 6.29Q31.99 6.90 31.81 7.62L31.81 7.62L31.81 7.62Q31.63 8.34 31.63 9.07L31.63 9.07L31.63 9.07Q31.63 9.91 31.88 10.67L31.88 10.67L31.88 10.67Q32.05 11.09 32.23 11.33L32.23 11.33L32.23 11.33Q32.31 11.42 32.40 11.47L32.40 11.47L32.40 11.47Q32.80 11.19 33.13 10.68L33.13 10.68L33.13 10.68Q33.46 10.18 33.68 9.63L33.68 9.63ZM33.49 4.72L33.49 4.72Q34.17 4.86 34.66 5.32L34.66 5.32L34.66 5.32Q35.15 5.78 35.41 6.43L35.41 6.43L35.41 6.43Q35.66 7.08 35.66 7.78L35.66 7.78L35.66 7.78Q35.66 8.61 35.34 9.48L35.34 9.48L35.34 9.48Q35.01 10.35 34.45 11.07L34.45 11.07L34.45 11.07Q33.89 11.80 33.21 12.22L33.21 12.22L33.21 12.22Q32.56 12.61 31.95 12.61L31.95 12.61L31.95 12.61Q31.33 12.61 30.87 12.24L30.87 12.24L30.87 12.24Q30.41 11.86 30.20 11.14L30.20 11.14L30.20 11.14Q29.96 10.42 29.96 9.51L29.96 9.51L29.96 9.51Q29.96 8.96 30.04 8.44L30.04 8.44L30.04 8.44Q29.95 8.47 29.75 8.47L29.75 8.47L29.75 8.47Q29.27 8.47 29.27 8.15L29.27 8.15L29.27 8.15Q29.27 8.04 29.30 7.97L29.30 7.97L29.30 7.97Q29.78 6.64 30.74 5.65L30.74 5.65L30.74 5.65Q31.70 4.66 32.94 4.66L32.94 4.66L32.94 4.66Q33.12 4.66 33.49 4.72L33.49 4.72Z"></path></g><!----><!----></svg>